# xmcd CD database file
#
# Track frame offsets:
#	187
#	26150
#	52517
#	78475
#	110565
#	130040
#
# Disc length: 2120 seconds
#
# Revision: 0
# Processed by: cddbd v1.5.2PL0 Copyright (c) Steve Scherf et al.
# Submitted via: CDex 1.51
#
DISCID=41084606
DTITLE=Paul Desmond - Polka Dots And Moonbeams
DYEAR=1965
DGENRE=Jazz
TTITLE0=When Joanna Loved Me
TTITLE1=Polka Dots And Moonbeams
TTITLE2=Here's That Rainy Day
TTITLE3=Easy Living
TTITLE4=I've Grown Accustomed To Your Face
TTITLE5=Bewitched
EXTD=YEAR: 1965
EXTT0=
EXTT1=
EXTT2=
EXTT3=
EXTT4=
EXTT5=
PLAYORDER=
